solid OpenSCAD_Model
  facet normal 0 0 1
    outer loop
      vertex 68 42 6.5
      vertex 61.5 40.5 6.5
      vertex 68 8 6.5
    endloop
  endfacet
  facet normal 0 0 1
    outer loop
      vertex 68 42 6.5
      vertex 26.5 40.5 6.5
      vertex 61.5 40.5 6.5
    endloop
  endfacet
  facet normal 0 0 1
    outer loop
      vertex 26.5 40.5 6.5
      vertex 6.5 42 6.5
      vertex 26.5 9.5 6.5
    endloop
  endfacet
  facet normal -0 0 1
    outer loop
      vertex 6.5 42 6.5
      vertex 26.5 40.5 6.5
      vertex 68 42 6.5
    endloop
  endfacet
  facet normal -0 0 1
    outer loop
      vertex 61.5 9.5 6.5
      vertex 68 8 6.5
      vertex 61.5 40.5 6.5
    endloop
  endfacet
  facet normal -0 0 1
    outer loop
      vertex 26.5 9.5 6.5
      vertex 68 8 6.5
      vertex 61.5 9.5 6.5
    endloop
  endfacet
  facet normal 0 0 1
    outer loop
      vertex 26.5 9.5 6.5
      vertex 6.5 8 6.5
      vertex 68 8 6.5
    endloop
  endfacet
  facet normal 0 0 1
    outer loop
      vertex 6.5 8 6.5
      vertex 26.5 9.5 6.5
      vertex 6.5 42 6.5
    endloop
  endfacet
  facet normal 0 1 -0
    outer loop
      vertex 61.5 9.5 2.5
      vertex 26.5 9.5 6.5
      vertex 61.5 9.5 6.5
    endloop
  endfacet
  facet normal 0 1 0
    outer loop
      vertex 26.5 9.5 6.5
      vertex 61.5 9.5 2.5
      vertex 26.5 9.5 2.5
    endloop
  endfacet
  facet normal 0 1 -0
    outer loop
      vertex 61.5 9.5 0
      vertex 26.5 9.5 2.5
      vertex 61.5 9.5 2.5
    endloop
  endfacet
  facet normal 0 1 0
    outer loop
      vertex 26.5 9.5 2.5
      vertex 61.5 9.5 0
      vertex 26.5 9.5 0
    endloop
  endfacet
  facet normal 0 0 -1
    outer loop
      vertex 75 0 0
      vertex 61.5 9.5 0
      vertex 75 50 0
    endloop
  endfacet
  facet normal 0 0 -1
    outer loop
      vertex 75 0 0
      vertex 26.5 9.5 0
      vertex 61.5 9.5 0
    endloop
  endfacet
  facet normal -0 0 -1
    outer loop
      vertex 26.5 9.5 0
      vertex 0 0 0
      vertex 26.5 40.5 0
    endloop
  endfacet
  facet normal 0 0 -1
    outer loop
      vertex 0 0 0
      vertex 26.5 9.5 0
      vertex 75 0 0
    endloop
  endfacet
  facet normal 0 0 -1
    outer loop
      vertex 61.5 40.5 0
      vertex 75 50 0
      vertex 61.5 9.5 0
    endloop
  endfacet
  facet normal 0 0 -1
    outer loop
      vertex 26.5 40.5 0
      vertex 75 50 0
      vertex 61.5 40.5 0
    endloop
  endfacet
  facet normal 0 0 -1
    outer loop
      vertex 26.5 40.5 0
      vertex 0 50 0
      vertex 75 50 0
    endloop
  endfacet
  facet normal 0 0 -1
    outer loop
      vertex 0 50 0
      vertex 26.5 40.5 0
      vertex 0 0 0
    endloop
  endfacet
  facet normal 0 -1 0
    outer loop
      vertex 6.5 8 1.5
      vertex 68 8 6.5
      vertex 6.5 8 6.5
    endloop
  endfacet
  facet normal 0 -1 -0
    outer loop
      vertex 68 8 6.5
      vertex 6.5 8 1.5
      vertex 68 8 1.5
    endloop
  endfacet
  facet normal 0 -1 0
    outer loop
      vertex 26.5 40.5 2.5
      vertex 61.5 40.5 6.5
      vertex 26.5 40.5 6.5
    endloop
  endfacet
  facet normal 0 -1 -0
    outer loop
      vertex 61.5 40.5 6.5
      vertex 26.5 40.5 2.5
      vertex 61.5 40.5 2.5
    endloop
  endfacet
  facet normal 0 -1 0
    outer loop
      vertex 26.5 40.5 0
      vertex 61.5 40.5 2.5
      vertex 26.5 40.5 2.5
    endloop
  endfacet
  facet normal 0 -1 -0
    outer loop
      vertex 61.5 40.5 2.5
      vertex 26.5 40.5 0
      vertex 61.5 40.5 0
    endloop
  endfacet
  facet normal 0 1 -0
    outer loop
      vertex 68 42 1.5
      vertex 6.5 42 6.5
      vertex 68 42 6.5
    endloop
  endfacet
  facet normal 0 1 0
    outer loop
      vertex 6.5 42 6.5
      vertex 68 42 1.5
      vertex 6.5 42 1.5
    endloop
  endfacet
  facet normal -1 0 0
    outer loop
      vertex 6.5 8 1.5
      vertex 6.5 42 6.5
      vertex 6.5 42 1.5
    endloop
  endfacet
  facet normal -1 -0 0
    outer loop
      vertex 6.5 42 6.5
      vertex 6.5 8 1.5
      vertex 6.5 8 6.5
    endloop
  endfacet
  facet normal 1 -0 0
    outer loop
      vertex 26.5 9.5 6.5
      vertex 26.5 40.5 2.5
      vertex 26.5 40.5 6.5
    endloop
  endfacet
  facet normal 1 0 0
    outer loop
      vertex 26.5 40.5 2.5
      vertex 26.5 9.5 6.5
      vertex 26.5 9.5 2.5
    endloop
  endfacet
  facet normal 1 -0 0
    outer loop
      vertex 26.5 9.5 2.5
      vertex 26.5 40.5 0
      vertex 26.5 40.5 2.5
    endloop
  endfacet
  facet normal 1 0 0
    outer loop
      vertex 26.5 40.5 0
      vertex 26.5 9.5 2.5
      vertex 26.5 9.5 0
    endloop
  endfacet
  facet normal -1 0 0
    outer loop
      vertex 61.5 9.5 2.5
      vertex 61.5 40.5 6.5
      vertex 61.5 40.5 2.5
    endloop
  endfacet
  facet normal -1 -0 0
    outer loop
      vertex 61.5 40.5 6.5
      vertex 61.5 9.5 2.5
      vertex 61.5 9.5 6.5
    endloop
  endfacet
  facet normal -1 0 0
    outer loop
      vertex 61.5 9.5 0
      vertex 61.5 40.5 2.5
      vertex 61.5 40.5 0
    endloop
  endfacet
  facet normal -1 -0 0
    outer loop
      vertex 61.5 40.5 2.5
      vertex 61.5 9.5 0
      vertex 61.5 9.5 2.5
    endloop
  endfacet
  facet normal 1 -0 0
    outer loop
      vertex 68 8 6.5
      vertex 68 42 1.5
      vertex 68 42 6.5
    endloop
  endfacet
  facet normal 1 0 0
    outer loop
      vertex 68 42 1.5
      vertex 68 8 6.5
      vertex 68 8 1.5
    endloop
  endfacet
  facet normal -1 0 0
    outer loop
      vertex 0 0 0
      vertex 0 50 1.5
      vertex 0 50 0
    endloop
  endfacet
  facet normal -1 -0 0
    outer loop
      vertex 0 50 1.5
      vertex 0 0 0
      vertex 0 0 1.5
    endloop
  endfacet
  facet normal 0 0 1
    outer loop
      vertex 75 50 1.5
      vertex 68 42 1.5
      vertex 75 0 1.5
    endloop
  endfacet
  facet normal -0 0 1
    outer loop
      vertex 0 50 1.5
      vertex 68 42 1.5
      vertex 75 50 1.5
    endloop
  endfacet
  facet normal 0 0 1
    outer loop
      vertex 6.5 42 1.5
      vertex 0 50 1.5
      vertex 6.5 8 1.5
    endloop
  endfacet
  facet normal 0 0 1
    outer loop
      vertex 68 42 1.5
      vertex 0 50 1.5
      vertex 6.5 42 1.5
    endloop
  endfacet
  facet normal -0 0 1
    outer loop
      vertex 68 8 1.5
      vertex 75 0 1.5
      vertex 68 42 1.5
    endloop
  endfacet
  facet normal 0 0 1
    outer loop
      vertex 0 0 1.5
      vertex 68 8 1.5
      vertex 6.5 8 1.5
    endloop
  endfacet
  facet normal 0 0 1
    outer loop
      vertex 68 8 1.5
      vertex 0 0 1.5
      vertex 75 0 1.5
    endloop
  endfacet
  facet normal 0 0 1
    outer loop
      vertex 0 0 1.5
      vertex 6.5 8 1.5
      vertex 0 50 1.5
    endloop
  endfacet
  facet normal 1 -0 0
    outer loop
      vertex 75 0 1.5
      vertex 75 50 0
      vertex 75 50 1.5
    endloop
  endfacet
  facet normal 1 0 0
    outer loop
      vertex 75 50 0
      vertex 75 0 1.5
      vertex 75 0 0
    endloop
  endfacet
  facet normal 0 -1 0
    outer loop
      vertex 0 0 0
      vertex 75 0 1.5
      vertex 0 0 1.5
    endloop
  endfacet
  facet normal 0 -1 -0
    outer loop
      vertex 75 0 1.5
      vertex 0 0 0
      vertex 75 0 0
    endloop
  endfacet
  facet normal 0 1 -0
    outer loop
      vertex 75 50 0
      vertex 0 50 1.5
      vertex 75 50 1.5
    endloop
  endfacet
  facet normal 0 1 0
    outer loop
      vertex 0 50 1.5
      vertex 75 50 0
      vertex 0 50 0
    endloop
  endfacet
endsolid OpenSCAD_Model
